<svg width="48" height="49" viewBox="0 0 48 49" fill="none" xmlns="http://www.w3.org/2000/svg">
<g clip-path="url(#clip0_20084_228)">
<path d="M31.8851 29.5697H46.991C47.2268 29.5697 47.411 29.7981 47.3594 30.0266C44.7214 41.2049 34.2873 49.3548 22.1141 48.4263C10.361 47.5273 0.877381 37.9774 0.0594501 26.2169C-0.913224 12.1795 10.1767 0.5 24.0005 0.5C35.3557 0.5 44.8614 8.37719 47.3594 18.9734C47.411 19.2092 47.2341 19.4303 46.991 19.4303H31.8851C31.7672 19.4303 31.6566 19.3714 31.5829 19.2682C29.8439 16.7554 26.8817 15.1343 23.5584 15.2891C18.8424 15.5101 14.9591 19.4303 14.7896 24.1463C14.598 29.3855 18.7982 33.7109 24.0005 33.7109C27.147 33.7109 29.925 32.1266 31.5829 29.7244C31.6493 29.6286 31.7598 29.5623 31.8851 29.5623V29.5697Z" fill="#4376FB"/>
<path d="M48.0009 24.5C48.0009 24.1684 47.9935 23.8368 47.9788 23.5053C47.9714 23.2842 47.7872 23.1147 47.5661 23.1147H29.6232C29.4611 23.1147 29.3211 23.0042 29.2769 22.8494C28.4811 20.2998 25.8947 18.5387 22.984 19.0545C20.7881 19.4451 18.9975 21.1915 18.5701 23.38C17.8775 26.9243 20.5744 30.0266 23.9935 30.0266C26.4768 30.0266 28.5695 28.3907 29.2695 26.1433C29.3211 25.9885 29.4538 25.878 29.6159 25.878H47.5588C47.7798 25.878 47.964 25.7085 47.9714 25.4874C47.9862 25.1559 47.9935 24.8243 47.9935 24.4927L48.0009 24.5Z" fill="#FFBF25"/>
</g>
<defs>
<clipPath id="clip0_20084_228">
<rect width="48" height="48" fill="white" transform="translate(0 0.5)"/>
</clipPath>
</defs>
</svg>
